<svg xmlns="http://www.w3.org/2000/svg" viewBox="0 0 270 64" role="img" aria-labelledby="title">
  <title id="title">SB Agents</title>
  <g transform="translate(-5 -3) scale(.4)">
    <path d="M74 122.648c0-2.949 2.099-6.34 4.688-7.575l40.624-19.372c2.589-1.235 4.688.155 4.688 3.104v17.797c0 2.949-2.099 6.34-4.688 7.575l-40.624 19.372c-2.59 1.235-4.688-.155-4.688-3.103v-17.798z" fill="#EA2069"/>
    <path d="M24 70.889c0-2.986 2.099-4.422 4.688-3.207l40.624 19.055c2.59 1.215 4.688 4.62 4.688 7.605v18.019c0 2.986-2.099 4.422-4.688 3.207L28.688 96.513C26.098 95.298 24 91.893 24 88.908v-18.02z" fill="#49D4D0"/>
    <path d="M74 67.295c0-3.101 2.174-6.668 4.855-7.966l29.129-14.105c2.682-1.298 4.855.163 4.855 3.264v18.717c0 3.101-2.173 6.668-4.855 7.966l-29.13 14.105C76.175 90.575 74 89.113 74 86.012V67.295z" fill="#4AB278"/>
    <path d="M49 27.686c0-3.024 2.099-4.479 4.688-3.249l15.624 7.424C71.903 33.09 74 36.539 74 39.563v18.252c0 3.024-2.099 4.478-4.688 3.248l-15.624-7.424C51.097 52.41 49 48.961 49 45.937V27.686z" fill="#F4CC46"/>
  </g>
  <text x="58" y="42" fill="#F8F8F4" font-family="Aleo, Georgia, Times New Roman, serif" font-size="30" font-weight="600" letter-spacing="-1">SB Agents</text>
</svg>
